<svg id="svgcontent_1" xmlns="http://www.w3.org/2000/svg" xmlns:xlink="http://www.w3.org/1999/xlink" height="270" viewBox="0 0 840 270" width="840" overflow="hidden"><style type="text/css">text{font-size:11pt;font-style:normal;font-variant:normal;font-weight:normal;font-stretch:normal;text-align:center;fill-opacity:1;font-family:Helvetica}.muted{fill:#aaa}.warning{fill:#f6b900}.error{fill:#f60000}.info{fill:#0041c4}.success{fill:#00ab00}.h1{font-size:33pt;font-weight:bold}.h2{font-size:27pt;font-weight:bold}.h3{font-size:20pt;font-weight:bold}.h4{font-size:14pt;font-weight:bold}.h5{font-size:11pt;font-weight:bold}.h6{font-size:8pt;font-weight:bold}.s1{fill:none;stroke:#000;stroke-width:1;stroke-linecap:round;stroke-linejoin:miter;stroke-miterlimit:4;stroke-opacity:1;stroke-dasharray:none}.s2{fill:none;stroke:#000;stroke-width:0.5;stroke-linecap:round;stroke-linejoin:miter;stroke-miterlimit:4;stroke-opacity:1;stroke-dasharray:none}.s3{color:#000;fill:none;stroke:#000;stroke-width:1;stroke-linecap:round;stroke-linejoin:miter;stroke-miterlimit:4;stroke-opacity:1;stroke-dasharray:1, 3;stroke-dashoffset:0;marker:none;visibility:visible;display:inline;overflow:visible;enable-background:accumulate}.s4{color:#000;fill:none;stroke:#000;stroke-width:1;stroke-linecap:round;stroke-linejoin:miter;stroke-miterlimit:4;stroke-opacity:1;stroke-dasharray:none;stroke-dashoffset:0;marker:none;visibility:visible;display:inline;overflow:visible}.s5{fill:#fff;stroke:none}.s6{color:#000;fill:#ffffb4;fill-opacity:1;fill-rule:nonzero;stroke:none;stroke-width:1px;marker:none;visibility:visible;display:inline;overflow:visible;enable-background:accumulate}.s7{color:#000;fill:#ffe0b9;fill-opacity:1;fill-rule:nonzero;stroke:none;stroke-width:1px;marker:none;visibility:visible;display:inline;overflow:visible;enable-background:accumulate}.s8{color:#000;fill:#b9e0ff;fill-opacity:1;fill-rule:nonzero;stroke:none;stroke-width:1px;marker:none;visibility:visible;display:inline;overflow:visible;enable-background:accumulate}.s9{fill:#000;fill-opacity:1;stroke:none}.s10{color:#000;fill:#fff;fill-opacity:1;fill-rule:nonzero;stroke:none;stroke-width:1px;marker:none;visibility:visible;display:inline;overflow:visible;enable-background:accumulate}.s11{fill:#0041c4;fill-opacity:1;stroke:none}.s12{fill:none;stroke:#0041c4;stroke-width:1;stroke-linecap:round;stroke-linejoin:miter;stroke-miterlimit:4;stroke-opacity:1;stroke-dasharray:none}</style><defs><g id="socket"><rect y="15" x="6" height="20" width="20"></rect></g><g id="pclk"><path d="M0,20 0,0 20,0" class="s1"></path></g><g id="nclk"><path d="m0,0 0,20 20,0" class="s1"></path></g><g id="000"><path d="m0,20 20,0" class="s1"></path></g><g id="0m0"><path d="m0,20 3,0 3,-10 3,10 11,0" class="s1"></path></g><g id="0m1"><path d="M0,20 3,20 9,0 20,0" class="s1"></path></g><g id="0mx"><path d="M3,20 9,0 20,0" class="s1"></path><path d="m20,15 -5,5" class="s2"></path><path d="M20,10 10,20" class="s2"></path><path d="M20,5 5,20" class="s2"></path><path d="M20,0 4,16" class="s2"></path><path d="M15,0 6,9" class="s2"></path><path d="M10,0 9,1" class="s2"></path><path d="m0,20 20,0" class="s1"></path></g><g id="0md"><path d="m8,20 10,0" class="s3"></path><path d="m0,20 5,0" class="s1"></path></g><g id="0mu"><path d="m0,20 3,0 C 7,10 10.107603,0 20,0" class="s1"></path></g><g id="0mz"><path d="m0,20 3,0 C 10,10 15,10 20,10" class="s1"></path></g><g id="111"><path d="M0,0 20,0" class="s1"></path></g><g id="1m0"><path d="m0,0 3,0 6,20 11,0" class="s1"></path></g><g id="1m1"><path d="M0,0 3,0 6,10 9,0 20,0" class="s1"></path></g><g id="1mx"><path d="m3,0 6,20 11,0" class="s1"></path><path d="M0,0 20,0" class="s1"></path><path d="m20,15 -5,5" class="s2"></path><path d="M20,10 10,20" class="s2"></path><path d="M20,5 8,17" class="s2"></path><path d="M20,0 7,13" class="s2"></path><path d="M15,0 6,9" class="s2"></path><path d="M10,0 5,5" class="s2"></path><path d="M3.5,1.5 5,0" class="s2"></path></g><g id="1md"><path d="m0,0 3,0 c 4,10 7,20 17,20" class="s1"></path></g><g id="1mu"><path d="M0,0 5,0" class="s1"></path><path d="M8,0 18,0" class="s3"></path></g><g id="1mz"><path d="m0,0 3,0 c 7,10 12,10 17,10" class="s1"></path></g><g id="xxx"><path d="m0,20 20,0" class="s1"></path><path d="M0,0 20,0" class="s1"></path><path d="M0,5 5,0" class="s2"></path><path d="M0,10 10,0" class="s2"></path><path d="M0,15 15,0" class="s2"></path><path d="M0,20 20,0" class="s2"></path><path d="M5,20 20,5" class="s2"></path><path d="M10,20 20,10" class="s2"></path><path d="m15,20 5,-5" class="s2"></path></g><g id="xm0"><path d="M0,0 4,0 9,20" class="s1"></path><path d="m0,20 20,0" class="s1"></path><path d="M0,5 4,1" class="s2"></path><path d="M0,10 5,5" class="s2"></path><path d="M0,15 6,9" class="s2"></path><path d="M0,20 7,13" class="s2"></path><path d="M5,20 8,17" class="s2"></path></g><g id="xm1"><path d="M0,0 20,0" class="s1"></path><path d="M0,20 4,20 9,0" class="s1"></path><path d="M0,5 5,0" class="s2"></path><path d="M0,10 9,1" class="s2"></path><path d="M0,15 7,8" class="s2"></path><path d="M0,20 5,15" class="s2"></path></g><g id="xmx"><path d="m0,20 20,0" class="s1"></path><path d="M0,0 20,0" class="s1"></path><path d="M0,5 5,0" class="s2"></path><path d="M0,10 10,0" class="s2"></path><path d="M0,15 15,0" class="s2"></path><path d="M0,20 20,0" class="s2"></path><path d="M5,20 20,5" class="s2"></path><path d="M10,20 20,10" class="s2"></path><path d="m15,20 5,-5" class="s2"></path></g><g id="xmd"><path d="m0,0 4,0 c 3,10 6,20 16,20" class="s1"></path><path d="m0,20 20,0" class="s1"></path><path d="M0,5 4,1" class="s2"></path><path d="M0,10 5.5,4.5" class="s2"></path><path d="M0,15 6.5,8.5" class="s2"></path><path d="M0,20 8,12" class="s2"></path><path d="m5,20 5,-5" class="s2"></path><path d="m10,20 2.5,-2.5" class="s2"></path></g><g id="xmu"><path d="M0,0 20,0" class="s1"></path><path d="m0,20 4,0 C 7,10 10,0 20,0" class="s1"></path><path d="M0,5 5,0" class="s2"></path><path d="M0,10 10,0" class="s2"></path><path d="M0,15 10,5" class="s2"></path><path d="M0,20 6,14" class="s2"></path></g><g id="xmz"><path d="m0,0 4,0 c 6,10 11,10 16,10" class="s1"></path><path d="m0,20 4,0 C 10,10 15,10 20,10" class="s1"></path><path d="M0,5 4.5,0.5" class="s2"></path><path d="M0,10 6.5,3.5" class="s2"></path><path d="M0,15 8.5,6.5" class="s2"></path><path d="M0,20 11.5,8.5" class="s2"></path></g><g id="ddd"><path d="m0,20 20,0" class="s3"></path></g><g id="dm0"><path d="m0,20 10,0" class="s3"></path><path d="m12,20 8,0" class="s1"></path></g><g id="dm1"><path d="M0,20 3,20 9,0 20,0" class="s1"></path></g><g id="dmx"><path d="M3,20 9,0 20,0" class="s1"></path><path d="m20,15 -5,5" class="s2"></path><path d="M20,10 10,20" class="s2"></path><path d="M20,5 5,20" class="s2"></path><path d="M20,0 4,16" class="s2"></path><path d="M15,0 6,9" class="s2"></path><path d="M10,0 9,1" class="s2"></path><path d="m0,20 20,0" class="s1"></path></g><g id="dmd"><path d="m0,20 20,0" class="s3"></path></g><g id="dmu"><path d="m0,20 3,0 C 7,10 10.107603,0 20,0" class="s1"></path></g><g id="dmz"><path d="m0,20 3,0 C 10,10 15,10 20,10" class="s1"></path></g><g id="uuu"><path d="M0,0 20,0" class="s3"></path></g><g id="um0"><path d="m0,0 3,0 6,20 11,0" class="s1"></path></g><g id="um1"><path d="M0,0 10,0" class="s3"></path><path d="m12,0 8,0" class="s1"></path></g><g id="umx"><path d="m3,0 6,20 11,0" class="s1"></path><path d="M0,0 20,0" class="s1"></path><path d="m20,15 -5,5" class="s2"></path><path d="M20,10 10,20" class="s2"></path><path d="M20,5 8,17" class="s2"></path><path d="M20,0 7,13" class="s2"></path><path d="M15,0 6,9" class="s2"></path><path d="M10,0 5,5" class="s2"></path><path d="M3.5,1.5 5,0" class="s2"></path></g><g id="umd"><path d="m0,0 3,0 c 4,10 7,20 17,20" class="s1"></path></g><g id="umu"><path d="M0,0 20,0" class="s3"></path></g><g id="umz"><path d="m0,0 3,0 c 7,10 12,10 17,10" class="s4"></path></g><g id="zzz"><path d="m0,10 20,0" class="s1"></path></g><g id="zm0"><path d="m0,10 6,0 3,10 11,0" class="s1"></path></g><g id="zm1"><path d="M0,10 6,10 9,0 20,0" class="s1"></path></g><g id="zmx"><path d="m6,10 3,10 11,0" class="s1"></path><path d="M0,10 6,10 9,0 20,0" class="s1"></path><path d="m20,15 -5,5" class="s2"></path><path d="M20,10 10,20" class="s2"></path><path d="M20,5 8,17" class="s2"></path><path d="M20,0 7,13" class="s2"></path><path d="M15,0 6.5,8.5" class="s2"></path><path d="M10,0 9,1" class="s2"></path></g><g id="zmd"><path d="m0,10 7,0 c 3,5 8,10 13,10" class="s1"></path></g><g id="zmu"><path d="m0,10 7,0 C 10,5 15,0 20,0" class="s1"></path></g><g id="zmz"><path d="m0,10 20,0" class="s1"></path></g><g id="gap"><path d="m7,-2 -4,0 c -5,0 -5,24 -10,24 l 4,0 C 2,22 2,-2 7,-2 z" class="s5"></path><path d="M-7,22 C -2,22 -2,-2 3,-2" class="s1"></path><path d="M-3,22 C 2,22 2,-2 7,-2" class="s1"></path></g><g id="0mv-3"><path d="M9,0 20,0 20,20 3,20 z" class="s6"></path><path d="M3,20 9,0 20,0" class="s1"></path><path d="m0,20 20,0" class="s1"></path></g><g id="1mv-3"><path d="M2.875,0 20,0 20,20 9,20 z" class="s6"></path><path d="m3,0 6,20 11,0" class="s1"></path><path d="M0,0 20,0" class="s1"></path></g><g id="xmv-3"><path d="M9,0 20,0 20,20 9,20 6,10 z" class="s6"></path><path d="M0,20 3,20 9,0 20,0" class="s1"></path><path d="m0,0 3,0 6,20 11,0" class="s1"></path><path d="M0,5 3.5,1.5" class="s2"></path><path d="M0,10 4.5,5.5" class="s2"></path><path d="M0,15 6,9" class="s2"></path><path d="M0,20 4,16" class="s2"></path></g><g id="dmv-3"><path d="M9,0 20,0 20,20 3,20 z" class="s6"></path><path d="M3,20 9,0 20,0" class="s1"></path><path d="m0,20 20,0" class="s1"></path></g><g id="umv-3"><path d="M3,0 20,0 20,20 9,20 z" class="s6"></path><path d="m3,0 6,20 11,0" class="s1"></path><path d="M0,0 20,0" class="s1"></path></g><g id="zmv-3"><path d="M9,0 20,0 20,20 9,20 6,10 z" class="s6"></path><path d="m6,10 3,10 11,0" class="s1"></path><path d="M0,10 6,10 9,0 20,0" class="s1"></path></g><g id="vvv-3"><path d="M20,20 0,20 0,0 20,0" class="s6"></path><path d="m0,20 20,0" class="s1"></path><path d="M0,0 20,0" class="s1"></path></g><g id="vm0-3"><path d="M0,20 0,0 3,0 9,20" class="s6"></path><path d="M0,0 3,0 9,20" class="s1"></path><path d="m0,20 20,0" class="s1"></path></g><g id="vm1-3"><path d="M0,0 0,20 3,20 9,0" class="s6"></path><path d="M0,0 20,0" class="s1"></path><path d="M0,20 3,20 9,0" class="s1"></path></g><g id="vmx-3"><path d="M0,0 0,20 3,20 6,10 3,0" class="s6"></path><path d="m0,0 3,0 6,20 11,0" class="s1"></path><path d="M0,20 3,20 9,0 20,0" class="s1"></path><path d="m20,15 -5,5" class="s2"></path><path d="M20,10 10,20" class="s2"></path><path d="M20,5 8,17" class="s2"></path><path d="M20,0 7,13" class="s2"></path><path d="M15,0 7,8" class="s2"></path><path d="M10,0 9,1" class="s2"></path></g><g id="vmd-3"><path d="m0,0 0,20 20,0 C 10,20 7,10 3,0" class="s6"></path><path d="m0,0 3,0 c 4,10 7,20 17,20" class="s1"></path><path d="m0,20 20,0" class="s1"></path></g><g id="vmu-3"><path d="m0,0 0,20 3,0 C 7,10 10,0 20,0" class="s6"></path><path d="m0,20 3,0 C 7,10 10,0 20,0" class="s1"></path><path d="M0,0 20,0" class="s1"></path></g><g id="vmz-3"><path d="M0,0 3,0 C 10,10 15,10 20,10 15,10 10,10 3,20 L 0,20" class="s6"></path><path d="m0,0 3,0 c 7,10 12,10 17,10" class="s1"></path><path d="m0,20 3,0 C 10,10 15,10 20,10" class="s1"></path></g><g id="vmv-3-3"><path d="M9,0 20,0 20,20 9,20 6,10 z" class="s6"></path><path d="M3,0 0,0 0,20 3,20 6,10 z" class="s6"></path><path d="m0,0 3,0 6,20 11,0" class="s1"></path><path d="M0,20 3,20 9,0 20,0" class="s1"></path></g><g id="vmv-3-4"><path d="M9,0 20,0 20,20 9,20 6,10 z" class="s7"></path><path d="M3,0 0,0 0,20 3,20 6,10 z" class="s6"></path><path d="m0,0 3,0 6,20 11,0" class="s1"></path><path d="M0,20 3,20 9,0 20,0" class="s1"></path></g><g id="vmv-3-5"><path d="M9,0 20,0 20,20 9,20 6,10 z" class="s8"></path><path d="M3,0 0,0 0,20 3,20 6,10 z" class="s6"></path><path d="m0,0 3,0 6,20 11,0" class="s1"></path><path d="M0,20 3,20 9,0 20,0" class="s1"></path></g><g id="vmv-4-3"><path d="M9,0 20,0 20,20 9,20 6,10 z" class="s6"></path><path d="M3,0 0,0 0,20 3,20 6,10 z" class="s7"></path><path d="m0,0 3,0 6,20 11,0" class="s1"></path><path d="M0,20 3,20 9,0 20,0" class="s1"></path></g><g id="vmv-4-4"><path d="M9,0 20,0 20,20 9,20 6,10 z" class="s7"></path><path d="M3,0 0,0 0,20 3,20 6,10 z" class="s7"></path><path d="m0,0 3,0 6,20 11,0" class="s1"></path><path d="M0,20 3,20 9,0 20,0" class="s1"></path></g><g id="vmv-4-5"><path d="M9,0 20,0 20,20 9,20 6,10 z" class="s8"></path><path d="M3,0 0,0 0,20 3,20 6,10 z" class="s7"></path><path d="m0,0 3,0 6,20 11,0" class="s1"></path><path d="M0,20 3,20 9,0 20,0" class="s1"></path></g><g id="vmv-5-3"><path d="M9,0 20,0 20,20 9,20 6,10 z" class="s6"></path><path d="M3,0 0,0 0,20 3,20 6,10 z" class="s8"></path><path d="m0,0 3,0 6,20 11,0" class="s1"></path><path d="M0,20 3,20 9,0 20,0" class="s1"></path></g><g id="vmv-5-4"><path d="M9,0 20,0 20,20 9,20 6,10 z" class="s7"></path><path d="M3,0 0,0 0,20 3,20 6,10 z" class="s8"></path><path d="m0,0 3,0 6,20 11,0" class="s1"></path><path d="M0,20 3,20 9,0 20,0" class="s1"></path></g><g id="vmv-5-5"><path d="M9,0 20,0 20,20 9,20 6,10 z" class="s8"></path><path d="M3,0 0,0 0,20 3,20 6,10 z" class="s8"></path><path d="m0,0 3,0 6,20 11,0" class="s1"></path><path d="M0,20 3,20 9,0 20,0" class="s1"></path></g><g id="0mv-4"><path d="M9,0 20,0 20,20 3,20 z" class="s7"></path><path d="M3,20 9,0 20,0" class="s1"></path><path d="m0,20 20,0" class="s1"></path></g><g id="1mv-4"><path d="M2.875,0 20,0 20,20 9,20 z" class="s7"></path><path d="m3,0 6,20 11,0" class="s1"></path><path d="M0,0 20,0" class="s1"></path></g><g id="xmv-4"><path d="M9,0 20,0 20,20 9,20 6,10 z" class="s7"></path><path d="M0,20 3,20 9,0 20,0" class="s1"></path><path d="m0,0 3,0 6,20 11,0" class="s1"></path><path d="M0,5 3.5,1.5" class="s2"></path><path d="M0,10 4.5,5.5" class="s2"></path><path d="M0,15 6,9" class="s2"></path><path d="M0,20 4,16" class="s2"></path></g><g id="dmv-4"><path d="M9,0 20,0 20,20 3,20 z" class="s7"></path><path d="M3,20 9,0 20,0" class="s1"></path><path d="m0,20 20,0" class="s1"></path></g><g id="umv-4"><path d="M3,0 20,0 20,20 9,20 z" class="s7"></path><path d="m3,0 6,20 11,0" class="s1"></path><path d="M0,0 20,0" class="s1"></path></g><g id="zmv-4"><path d="M9,0 20,0 20,20 9,20 6,10 z" class="s7"></path><path d="m6,10 3,10 11,0" class="s1"></path><path d="M0,10 6,10 9,0 20,0" class="s1"></path></g><g id="0mv-5"><path d="M9,0 20,0 20,20 3,20 z" class="s8"></path><path d="M3,20 9,0 20,0" class="s1"></path><path d="m0,20 20,0" class="s1"></path></g><g id="1mv-5"><path d="M2.875,0 20,0 20,20 9,20 z" class="s8"></path><path d="m3,0 6,20 11,0" class="s1"></path><path d="M0,0 20,0" class="s1"></path></g><g id="xmv-5"><path d="M9,0 20,0 20,20 9,20 6,10 z" class="s8"></path><path d="M0,20 3,20 9,0 20,0" class="s1"></path><path d="m0,0 3,0 6,20 11,0" class="s1"></path><path d="M0,5 3.5,1.5" class="s2"></path><path d="M0,10 4.5,5.5" class="s2"></path><path d="M0,15 6,9" class="s2"></path><path d="M0,20 4,16" class="s2"></path></g><g id="dmv-5"><path d="M9,0 20,0 20,20 3,20 z" class="s8"></path><path d="M3,20 9,0 20,0" class="s1"></path><path d="m0,20 20,0" class="s1"></path></g><g id="umv-5"><path d="M3,0 20,0 20,20 9,20 z" class="s8"></path><path d="m3,0 6,20 11,0" class="s1"></path><path d="M0,0 20,0" class="s1"></path></g><g id="zmv-5"><path d="M9,0 20,0 20,20 9,20 6,10 z" class="s8"></path><path d="m6,10 3,10 11,0" class="s1"></path><path d="M0,10 6,10 9,0 20,0" class="s1"></path></g><g id="vvv-4"><path d="M20,20 0,20 0,0 20,0" class="s7"></path><path d="m0,20 20,0" class="s1"></path><path d="M0,0 20,0" class="s1"></path></g><g id="vm0-4"><path d="M0,20 0,0 3,0 9,20" class="s7"></path><path d="M0,0 3,0 9,20" class="s1"></path><path d="m0,20 20,0" class="s1"></path></g><g id="vm1-4"><path d="M0,0 0,20 3,20 9,0" class="s7"></path><path d="M0,0 20,0" class="s1"></path><path d="M0,20 3,20 9,0" class="s1"></path></g><g id="vmx-4"><path d="M0,0 0,20 3,20 6,10 3,0" class="s7"></path><path d="m0,0 3,0 6,20 11,0" class="s1"></path><path d="M0,20 3,20 9,0 20,0" class="s1"></path><path d="m20,15 -5,5" class="s2"></path><path d="M20,10 10,20" class="s2"></path><path d="M20,5 8,17" class="s2"></path><path d="M20,0 7,13" class="s2"></path><path d="M15,0 7,8" class="s2"></path><path d="M10,0 9,1" class="s2"></path></g><g id="vmd-4"><path d="m0,0 0,20 20,0 C 10,20 7,10 3,0" class="s7"></path><path d="m0,0 3,0 c 4,10 7,20 17,20" class="s1"></path><path d="m0,20 20,0" class="s1"></path></g><g id="vmu-4"><path d="m0,0 0,20 3,0 C 7,10 10,0 20,0" class="s7"></path><path d="m0,20 3,0 C 7,10 10,0 20,0" class="s1"></path><path d="M0,0 20,0" class="s1"></path></g><g id="vmz-4"><path d="M0,0 3,0 C 10,10 15,10 20,10 15,10 10,10 3,20 L 0,20" class="s7"></path><path d="m0,0 3,0 c 7,10 12,10 17,10" class="s1"></path><path d="m0,20 3,0 C 10,10 15,10 20,10" class="s1"></path></g><g id="vvv-5"><path d="M20,20 0,20 0,0 20,0" class="s8"></path><path d="m0,20 20,0" class="s1"></path><path d="M0,0 20,0" class="s1"></path></g><g id="vm0-5"><path d="M0,20 0,0 3,0 9,20" class="s8"></path><path d="M0,0 3,0 9,20" class="s1"></path><path d="m0,20 20,0" class="s1"></path></g><g id="vm1-5"><path d="M0,0 0,20 3,20 9,0" class="s8"></path><path d="M0,0 20,0" class="s1"></path><path d="M0,20 3,20 9,0" class="s1"></path></g><g id="vmx-5"><path d="M0,0 0,20 3,20 6,10 3,0" class="s8"></path><path d="m0,0 3,0 6,20 11,0" class="s1"></path><path d="M0,20 3,20 9,0 20,0" class="s1"></path><path d="m20,15 -5,5" class="s2"></path><path d="M20,10 10,20" class="s2"></path><path d="M20,5 8,17" class="s2"></path><path d="M20,0 7,13" class="s2"></path><path d="M15,0 7,8" class="s2"></path><path d="M10,0 9,1" class="s2"></path></g><g id="vmd-5"><path d="m0,0 0,20 20,0 C 10,20 7,10 3,0" class="s8"></path><path d="m0,0 3,0 c 4,10 7,20 17,20" class="s1"></path><path d="m0,20 20,0" class="s1"></path></g><g id="vmu-5"><path d="m0,0 0,20 3,0 C 7,10 10,0 20,0" class="s8"></path><path d="m0,20 3,0 C 7,10 10,0 20,0" class="s1"></path><path d="M0,0 20,0" class="s1"></path></g><g id="vmz-5"><path d="M0,0 3,0 C 10,10 15,10 20,10 15,10 10,10 3,20 L 0,20" class="s8"></path><path d="m0,0 3,0 c 7,10 12,10 17,10" class="s1"></path><path d="m0,20 3,0 C 10,10 15,10 20,10" class="s1"></path></g><g id="Pclk"><path d="M-3,12 0,3 3,12 C 1,11 -1,11 -3,12 z" class="s9"></path><path d="M0,20 0,0 20,0" class="s1"></path></g><g id="Nclk"><path d="M-3,8 0,17 3,8 C 1,9 -1,9 -3,8 z" class="s9"></path><path d="m0,0 0,20 20,0" class="s1"></path></g><g id="vvv-2"><path d="M20,20 0,20 0,0 20,0" class="s10"></path><path d="m0,20 20,0" class="s1"></path><path d="M0,0 20,0" class="s1"></path></g><g id="vm0-2"><path d="M0,20 0,0 3,0 9,20" class="s10"></path><path d="M0,0 3,0 9,20" class="s1"></path><path d="m0,20 20,0" class="s1"></path></g><g id="vm1-2"><path d="M0,0 0,20 3,20 9,0" class="s10"></path><path d="M0,0 20,0" class="s1"></path><path d="M0,20 3,20 9,0" class="s1"></path></g><g id="vmx-2"><path d="M0,0 0,20 3,20 6,10 3,0" class="s10"></path><path d="m0,0 3,0 6,20 11,0" class="s1"></path><path d="M0,20 3,20 9,0 20,0" class="s1"></path><path d="m20,15 -5,5" class="s2"></path><path d="M20,10 10,20" class="s2"></path><path d="M20,5 8,17" class="s2"></path><path d="M20,0 7,13" class="s2"></path><path d="M15,0 7,8" class="s2"></path><path d="M10,0 9,1" class="s2"></path></g><g id="vmd-2"><path d="m0,0 0,20 20,0 C 10,20 7,10 3,0" class="s10"></path><path d="m0,0 3,0 c 4,10 7,20 17,20" class="s1"></path><path d="m0,20 20,0" class="s1"></path></g><g id="vmu-2"><path d="m0,0 0,20 3,0 C 7,10 10,0 20,0" class="s10"></path><path d="m0,20 3,0 C 7,10 10,0 20,0" class="s1"></path><path d="M0,0 20,0" class="s1"></path></g><g id="vmz-2"><path d="M0,0 3,0 C 10,10 15,10 20,10 15,10 10,10 3,20 L 0,20" class="s10"></path><path d="m0,0 3,0 c 7,10 12,10 17,10" class="s1"></path><path d="m0,20 3,0 C 10,10 15,10 20,10" class="s1"></path></g><g id="0mv-2"><path d="M9,0 20,0 20,20 3,20 z" class="s10"></path><path d="M3,20 9,0 20,0" class="s1"></path><path d="m0,20 20,0" class="s1"></path></g><g id="1mv-2"><path d="M2.875,0 20,0 20,20 9,20 z" class="s10"></path><path d="m3,0 6,20 11,0" class="s1"></path><path d="M0,0 20,0" class="s1"></path></g><g id="xmv-2"><path d="M9,0 20,0 20,20 9,20 6,10 z" class="s10"></path><path d="M0,20 3,20 9,0 20,0" class="s1"></path><path d="m0,0 3,0 6,20 11,0" class="s1"></path><path d="M0,5 3.5,1.5" class="s2"></path><path d="M0,10 4.5,5.5" class="s2"></path><path d="M0,15 6,9" class="s2"></path><path d="M0,20 4,16" class="s2"></path></g><g id="dmv-2"><path d="M9,0 20,0 20,20 3,20 z" class="s10"></path><path d="M3,20 9,0 20,0" class="s1"></path><path d="m0,20 20,0" class="s1"></path></g><g id="umv-2"><path d="M3,0 20,0 20,20 9,20 z" class="s10"></path><path d="m3,0 6,20 11,0" class="s1"></path><path d="M0,0 20,0" class="s1"></path></g><g id="zmv-2"><path d="M9,0 20,0 20,20 9,20 6,10 z" class="s10"></path><path d="m6,10 3,10 11,0" class="s1"></path><path d="M0,10 6,10 9,0 20,0" class="s1"></path></g><g id="vmv-3-2"><path d="M9,0 20,0 20,20 9,20 6,10 z" class="s10"></path><path d="M3,0 0,0 0,20 3,20 6,10 z" class="s6"></path><path d="m0,0 3,0 6,20 11,0" class="s1"></path><path d="M0,20 3,20 9,0 20,0" class="s1"></path></g><g id="vmv-4-2"><path d="M9,0 20,0 20,20 9,20 6,10 z" class="s10"></path><path d="M3,0 0,0 0,20 3,20 6,10 z" class="s7"></path><path d="m0,0 3,0 6,20 11,0" class="s1"></path><path d="M0,20 3,20 9,0 20,0" class="s1"></path></g><g id="vmv-5-2"><path d="M9,0 20,0 20,20 9,20 6,10 z" class="s10"></path><path d="M3,0 0,0 0,20 3,20 6,10 z" class="s8"></path><path d="m0,0 3,0 6,20 11,0" class="s1"></path><path d="M0,20 3,20 9,0 20,0" class="s1"></path></g><g id="vmv-2-3"><path d="M9,0 20,0 20,20 9,20 6,10 z" class="s6"></path><path d="M3,0 0,0 0,20 3,20 6,10 z" class="s10"></path><path d="m0,0 3,0 6,20 11,0" class="s1"></path><path d="M0,20 3,20 9,0 20,0" class="s1"></path></g><g id="vmv-2-4"><path d="M9,0 20,0 20,20 9,20 6,10 z" class="s7"></path><path d="M3,0 0,0 0,20 3,20 6,10 z" class="s10"></path><path d="m0,0 3,0 6,20 11,0" class="s1"></path><path d="M0,20 3,20 9,0 20,0" class="s1"></path></g><g id="vmv-2-5"><path d="M9,0 20,0 20,20 9,20 6,10 z" class="s8"></path><path d="M3,0 0,0 0,20 3,20 6,10 z" class="s10"></path><path d="m0,0 3,0 6,20 11,0" class="s1"></path><path d="M0,20 3,20 9,0 20,0" class="s1"></path></g><g id="vmv-2-2"><path d="M9,0 20,0 20,20 9,20 6,10 z" class="s10"></path><path d="M3,0 0,0 0,20 3,20 6,10 z" class="s10"></path><path d="m0,0 3,0 6,20 11,0" class="s1"></path><path d="M0,20 3,20 9,0 20,0" class="s1"></path></g><g id="arrow0"><path d="m-12,-3 9,3 -9,3 c 1,-2 1,-4 0,-6 z" class="s11"></path><path d="M0,0 -15,0" class="s12"></path></g><marker id="arrowhead" markerHeight="7" markerWidth="10" markerUnits="strokeWidth" viewBox="0 -4 11 8" refX="15" refY="0" orient="auto" style="fill: rgb(0, 65, 196);"><path d="M0 -4 11 0 0 4z"></path></marker><marker id="arrowtail" markerHeight="7" markerWidth="10" markerUnits="strokeWidth" viewBox="-11 -4 11 8" refX="-15" refY="0" orient="auto" style="fill: rgb(0, 65, 196);"><path d="M0 -4 -11 0 0 4z"></path></marker></defs><g id="waves_1"><g id="lanes_1" transform="translate(100.5, 0.5)"><g id="gmarks_1"><path id="gmark_0_1" d="m 0,0 0,270" style="stroke: rgb(136, 136, 136); stroke-width: 0.5; stroke-dasharray: 1, 3;"></path><path id="gmark_1_1" d="m 120,0 0,270" style="stroke: rgb(136, 136, 136); stroke-width: 0.5; stroke-dasharray: 1, 3;"></path><path id="gmark_2_1" d="m 240,0 0,270" style="stroke: rgb(136, 136, 136); stroke-width: 0.5; stroke-dasharray: 1, 3;"></path><path id="gmark_3_1" d="m 360,0 0,270" style="stroke: rgb(136, 136, 136); stroke-width: 0.5; stroke-dasharray: 1, 3;"></path><path id="gmark_4_1" d="m 480,0 0,270" style="stroke: rgb(136, 136, 136); stroke-width: 0.5; stroke-dasharray: 1, 3;"></path><path id="gmark_5_1" d="m 600,0 0,270" style="stroke: rgb(136, 136, 136); stroke-width: 0.5; stroke-dasharray: 1, 3;"></path><path id="gmark_6_1" d="m 720,0 0,270" style="stroke: rgb(136, 136, 136); stroke-width: 0.5; stroke-dasharray: 1, 3;"></path></g><g id="wavelane_0_1" transform="translate(0,5)"><text x="-10" y="15" class="info" text-anchor="end" xml:space="preserve"><tspan>clk</tspan></text><g id="wavelane_draw_0_1" transform="translate(0, 0)"><use xlink:href="#pclk" transform="translate(0)"></use><use xlink:href="#111" transform="translate(20)"></use><use xlink:href="#111" transform="translate(40)"></use><use xlink:href="#nclk" transform="translate(60)"></use><use xlink:href="#000" transform="translate(80)"></use><use xlink:href="#000" transform="translate(100)"></use><use xlink:href="#pclk" transform="translate(120)"></use><use xlink:href="#111" transform="translate(140)"></use><use xlink:href="#111" transform="translate(160)"></use><use xlink:href="#nclk" transform="translate(180)"></use><use xlink:href="#000" transform="translate(200)"></use><use xlink:href="#000" transform="translate(220)"></use><use xlink:href="#pclk" transform="translate(240)"></use><use xlink:href="#111" transform="translate(260)"></use><use xlink:href="#111" transform="translate(280)"></use><use xlink:href="#nclk" transform="translate(300)"></use><use xlink:href="#000" transform="translate(320)"></use><use xlink:href="#000" transform="translate(340)"></use><use xlink:href="#pclk" transform="translate(360)"></use><use xlink:href="#111" transform="translate(380)"></use><use xlink:href="#111" transform="translate(400)"></use><use xlink:href="#nclk" transform="translate(420)"></use><use xlink:href="#000" transform="translate(440)"></use><use xlink:href="#000" transform="translate(460)"></use><use xlink:href="#pclk" transform="translate(480)"></use><use xlink:href="#111" transform="translate(500)"></use><use xlink:href="#111" transform="translate(520)"></use><use xlink:href="#nclk" transform="translate(540)"></use><use xlink:href="#000" transform="translate(560)"></use><use xlink:href="#000" transform="translate(580)"></use><use xlink:href="#pclk" transform="translate(600)"></use><use xlink:href="#111" transform="translate(620)"></use><use xlink:href="#111" transform="translate(640)"></use><use xlink:href="#nclk" transform="translate(660)"></use><use xlink:href="#000" transform="translate(680)"></use><use xlink:href="#000" transform="translate(700)"></use></g></g><g id="wavelane_1_1" transform="translate(0,35)"><text x="-10" y="15" class="info" text-anchor="end" xml:space="preserve"><tspan>data_addr</tspan></text><g id="wavelane_draw_1_1" transform="translate(0, 0)"><use xlink:href="#xxx" transform="translate(0)"></use><use xlink:href="#xxx" transform="translate(20)"></use><use xlink:href="#xxx" transform="translate(40)"></use><use xlink:href="#xxx" transform="translate(60)"></use><use xlink:href="#xxx" transform="translate(80)"></use><use xlink:href="#xxx" transform="translate(100)"></use><use xlink:href="#xmv-3" transform="translate(120)"></use><use xlink:href="#vvv-3" transform="translate(140)"></use><use xlink:href="#vvv-3" transform="translate(160)"></use><use xlink:href="#vvv-3" transform="translate(180)"></use><use xlink:href="#vvv-3" transform="translate(200)"></use><use xlink:href="#vvv-3" transform="translate(220)"></use><use xlink:href="#vmx-3" transform="translate(240)"></use><use xlink:href="#xxx" transform="translate(260)"></use><use xlink:href="#xxx" transform="translate(280)"></use><use xlink:href="#xxx" transform="translate(300)"></use><use xlink:href="#xxx" transform="translate(320)"></use><use xlink:href="#xxx" transform="translate(340)"></use><use xlink:href="#xmv-4" transform="translate(360)"></use><use xlink:href="#vvv-4" transform="translate(380)"></use><use xlink:href="#vvv-4" transform="translate(400)"></use><use xlink:href="#vvv-4" transform="translate(420)"></use><use xlink:href="#vvv-4" transform="translate(440)"></use><use xlink:href="#vvv-4" transform="translate(460)"></use><use xlink:href="#vmv-4-5" transform="translate(480)"></use><use xlink:href="#vvv-5" transform="translate(500)"></use><use xlink:href="#vvv-5" transform="translate(520)"></use><use xlink:href="#vvv-5" transform="translate(540)"></use><use xlink:href="#vvv-5" transform="translate(560)"></use><use xlink:href="#vvv-5" transform="translate(580)"></use><use xlink:href="#vmx-5" transform="translate(600)"></use><use xlink:href="#xxx" transform="translate(620)"></use><use xlink:href="#xxx" transform="translate(640)"></use><use xlink:href="#xxx" transform="translate(660)"></use><use xlink:href="#xxx" transform="translate(680)"></use><use xlink:href="#xxx" transform="translate(700)"></use><text x="186" y="15" text-anchor="middle" xml:space="preserve"><tspan>0x200</tspan></text><text x="426" y="15" text-anchor="middle" xml:space="preserve"><tspan>0x204</tspan></text><text x="546" y="15" text-anchor="middle" xml:space="preserve"><tspan>0x200</tspan></text></g></g><g id="wavelane_2_1" transform="translate(0,65)"><text x="-10" y="15" class="info" text-anchor="end" xml:space="preserve"><tspan>data_wdata</tspan></text><g id="wavelane_draw_2_1" transform="translate(0, 0)"><use xlink:href="#xxx" transform="translate(0)"></use><use xlink:href="#xxx" transform="translate(20)"></use><use xlink:href="#xxx" transform="translate(40)"></use><use xlink:href="#xxx" transform="translate(60)"></use><use xlink:href="#xxx" transform="translate(80)"></use><use xlink:href="#xxx" transform="translate(100)"></use><use xlink:href="#xxx" transform="translate(120)"></use><use xlink:href="#xxx" transform="translate(140)"></use><use xlink:href="#xxx" transform="translate(160)"></use><use xlink:href="#xxx" transform="translate(180)"></use><use xlink:href="#xxx" transform="translate(200)"></use><use xlink:href="#xxx" transform="translate(220)"></use><use xlink:href="#xxx" transform="translate(240)"></use><use xlink:href="#xxx" transform="translate(260)"></use><use xlink:href="#xxx" transform="translate(280)"></use><use xlink:href="#xxx" transform="translate(300)"></use><use xlink:href="#xxx" transform="translate(320)"></use><use xlink:href="#xxx" transform="translate(340)"></use><use xlink:href="#xxx" transform="translate(360)"></use><use xlink:href="#xxx" transform="translate(380)"></use><use xlink:href="#xxx" transform="translate(400)"></use><use xlink:href="#xxx" transform="translate(420)"></use><use xlink:href="#xxx" transform="translate(440)"></use><use xlink:href="#xxx" transform="translate(460)"></use><use xlink:href="#xxx" transform="translate(480)"></use><use xlink:href="#xxx" transform="translate(500)"></use><use xlink:href="#xxx" transform="translate(520)"></use><use xlink:href="#xxx" transform="translate(540)"></use><use xlink:href="#xxx" transform="translate(560)"></use><use xlink:href="#xxx" transform="translate(580)"></use><use xlink:href="#xxx" transform="translate(600)"></use><use xlink:href="#xxx" transform="translate(620)"></use><use xlink:href="#xxx" transform="translate(640)"></use><use xlink:href="#xxx" transform="translate(660)"></use><use xlink:href="#xxx" transform="translate(680)"></use><use xlink:href="#xxx" transform="translate(700)"></use></g></g><g id="wavelane_3_1" transform="translate(0,95)"><text x="-10" y="15" class="info" text-anchor="end" xml:space="preserve"><tspan>data_rdata</tspan></text><g id="wavelane_draw_3_1" transform="translate(0, 0)"><use xlink:href="#xxx" transform="translate(0)"></use><use xlink:href="#xxx" transform="translate(20)"></use><use xlink:href="#xxx" transform="translate(40)"></use><use xlink:href="#xxx" transform="translate(60)"></use><use xlink:href="#xxx" transform="translate(80)"></use><use xlink:href="#xxx" transform="translate(100)"></use><use xlink:href="#xmx" transform="translate(120)"></use><use xlink:href="#xxx" transform="translate(140)"></use><use xlink:href="#xxx" transform="translate(160)"></use><use xlink:href="#xxx" transform="translate(180)"></use><use xlink:href="#xxx" transform="translate(200)"></use><use xlink:href="#xxx" transform="translate(220)"></use><use xlink:href="#xmv-3" transform="translate(240)"></use><use xlink:href="#vvv-3" transform="translate(260)"></use><use xlink:href="#vvv-3" transform="translate(280)"></use><use xlink:href="#vvv-3" transform="translate(300)"></use><use xlink:href="#vvv-3" transform="translate(320)"></use><use xlink:href="#vvv-3" transform="translate(340)"></use><use xlink:href="#vmx-3" transform="translate(360)"></use><use xlink:href="#xxx" transform="translate(380)"></use><use xlink:href="#xxx" transform="translate(400)"></use><use xlink:href="#xxx" transform="translate(420)"></use><use xlink:href="#xxx" transform="translate(440)"></use><use xlink:href="#xxx" transform="translate(460)"></use><use xlink:href="#xmv-4" transform="translate(480)"></use><use xlink:href="#vvv-4" transform="translate(500)"></use><use xlink:href="#vvv-4" transform="translate(520)"></use><use xlink:href="#vvv-4" transform="translate(540)"></use><use xlink:href="#vvv-4" transform="translate(560)"></use><use xlink:href="#vvv-4" transform="translate(580)"></use><use xlink:href="#vmx-4" transform="translate(600)"></use><use xlink:href="#xxx" transform="translate(620)"></use><use xlink:href="#xxx" transform="translate(640)"></use><use xlink:href="#xxx" transform="translate(660)"></use><use xlink:href="#xxx" transform="translate(680)"></use><use xlink:href="#xxx" transform="translate(700)"></use><text x="306" y="15" text-anchor="middle" xml:space="preserve"><tspan>0x12345678</tspan></text><text x="546" y="15" text-anchor="middle" xml:space="preserve"><tspan>0xaabbccdd</tspan></text></g></g><g id="wavelane_4_1" transform="translate(0,125)"><text x="-10" y="15" class="info" text-anchor="end" xml:space="preserve"><tspan>data_req</tspan></text><g id="wavelane_draw_4_1" transform="translate(0, 0)"><use xlink:href="#000" transform="translate(0)"></use><use xlink:href="#000" transform="translate(20)"></use><use xlink:href="#000" transform="translate(40)"></use><use xlink:href="#000" transform="translate(60)"></use><use xlink:href="#000" transform="translate(80)"></use><use xlink:href="#000" transform="translate(100)"></use><use xlink:href="#0m1" transform="translate(120)"></use><use xlink:href="#111" transform="translate(140)"></use><use xlink:href="#111" transform="translate(160)"></use><use xlink:href="#111" transform="translate(180)"></use><use xlink:href="#111" transform="translate(200)"></use><use xlink:href="#111" transform="translate(220)"></use><use xlink:href="#1m0" transform="translate(240)"></use><use xlink:href="#000" transform="translate(260)"></use><use xlink:href="#000" transform="translate(280)"></use><use xlink:href="#000" transform="translate(300)"></use><use xlink:href="#000" transform="translate(320)"></use><use xlink:href="#000" transform="translate(340)"></use><use xlink:href="#0m1" transform="translate(360)"></use><use xlink:href="#111" transform="translate(380)"></use><use xlink:href="#111" transform="translate(400)"></use><use xlink:href="#111" transform="translate(420)"></use><use xlink:href="#111" transform="translate(440)"></use><use xlink:href="#111" transform="translate(460)"></use><use xlink:href="#1m0" transform="translate(480)"></use><use xlink:href="#000" transform="translate(500)"></use><use xlink:href="#000" transform="translate(520)"></use><use xlink:href="#000" transform="translate(540)"></use><use xlink:href="#000" transform="translate(560)"></use><use xlink:href="#000" transform="translate(580)"></use><use xlink:href="#000" transform="translate(600)"></use><use xlink:href="#000" transform="translate(620)"></use><use xlink:href="#000" transform="translate(640)"></use><use xlink:href="#000" transform="translate(660)"></use><use xlink:href="#000" transform="translate(680)"></use><use xlink:href="#000" transform="translate(700)"></use></g></g><g id="wavelane_5_1" transform="translate(0,155)"><text x="-10" y="15" class="info" text-anchor="end" xml:space="preserve"><tspan>data_we</tspan></text><g id="wavelane_draw_5_1" transform="translate(0, 0)"><use xlink:href="#000" transform="translate(0)"></use><use xlink:href="#000" transform="translate(20)"></use><use xlink:href="#000" transform="translate(40)"></use><use xlink:href="#000" transform="translate(60)"></use><use xlink:href="#000" transform="translate(80)"></use><use xlink:href="#000" transform="translate(100)"></use><use xlink:href="#000" transform="translate(120)"></use><use xlink:href="#000" transform="translate(140)"></use><use xlink:href="#000" transform="translate(160)"></use><use xlink:href="#000" transform="translate(180)"></use><use xlink:href="#000" transform="translate(200)"></use><use xlink:href="#000" transform="translate(220)"></use><use xlink:href="#000" transform="translate(240)"></use><use xlink:href="#000" transform="translate(260)"></use><use xlink:href="#000" transform="translate(280)"></use><use xlink:href="#000" transform="translate(300)"></use><use xlink:href="#000" transform="translate(320)"></use><use xlink:href="#000" transform="translate(340)"></use><use xlink:href="#000" transform="translate(360)"></use><use xlink:href="#000" transform="translate(380)"></use><use xlink:href="#000" transform="translate(400)"></use><use xlink:href="#000" transform="translate(420)"></use><use xlink:href="#000" transform="translate(440)"></use><use xlink:href="#000" transform="translate(460)"></use><use xlink:href="#000" transform="translate(480)"></use><use xlink:href="#000" transform="translate(500)"></use><use xlink:href="#000" transform="translate(520)"></use><use xlink:href="#000" transform="translate(540)"></use><use xlink:href="#000" transform="translate(560)"></use><use xlink:href="#000" transform="translate(580)"></use><use xlink:href="#000" transform="translate(600)"></use><use xlink:href="#000" transform="translate(620)"></use><use xlink:href="#000" transform="translate(640)"></use><use xlink:href="#000" transform="translate(660)"></use><use xlink:href="#000" transform="translate(680)"></use><use xlink:href="#000" transform="translate(700)"></use></g></g><g id="wavelane_6_1" transform="translate(0,185)"><text x="-10" y="15" class="info" text-anchor="end" xml:space="preserve"><tspan>data_be</tspan></text><g id="wavelane_draw_6_1" transform="translate(0, 0)"><use xlink:href="#xxx" transform="translate(0)"></use><use xlink:href="#xxx" transform="translate(20)"></use><use xlink:href="#xxx" transform="translate(40)"></use><use xlink:href="#xxx" transform="translate(60)"></use><use xlink:href="#xxx" transform="translate(80)"></use><use xlink:href="#xxx" transform="translate(100)"></use><use xlink:href="#xmv-3" transform="translate(120)"></use><use xlink:href="#vvv-3" transform="translate(140)"></use><use xlink:href="#vvv-3" transform="translate(160)"></use><use xlink:href="#vvv-3" transform="translate(180)"></use><use xlink:href="#vvv-3" transform="translate(200)"></use><use xlink:href="#vvv-3" transform="translate(220)"></use><use xlink:href="#vmx-3" transform="translate(240)"></use><use xlink:href="#xxx" transform="translate(260)"></use><use xlink:href="#xxx" transform="translate(280)"></use><use xlink:href="#xxx" transform="translate(300)"></use><use xlink:href="#xxx" transform="translate(320)"></use><use xlink:href="#xxx" transform="translate(340)"></use><use xlink:href="#xmv-4" transform="translate(360)"></use><use xlink:href="#vvv-4" transform="translate(380)"></use><use xlink:href="#vvv-4" transform="translate(400)"></use><use xlink:href="#vvv-4" transform="translate(420)"></use><use xlink:href="#vvv-4" transform="translate(440)"></use><use xlink:href="#vvv-4" transform="translate(460)"></use><use xlink:href="#vmv-4-5" transform="translate(480)"></use><use xlink:href="#vvv-5" transform="translate(500)"></use><use xlink:href="#vvv-5" transform="translate(520)"></use><use xlink:href="#vvv-5" transform="translate(540)"></use><use xlink:href="#vvv-5" transform="translate(560)"></use><use xlink:href="#vvv-5" transform="translate(580)"></use><use xlink:href="#vmx-5" transform="translate(600)"></use><use xlink:href="#xxx" transform="translate(620)"></use><use xlink:href="#xxx" transform="translate(640)"></use><use xlink:href="#xxx" transform="translate(660)"></use><use xlink:href="#xxx" transform="translate(680)"></use><use xlink:href="#xxx" transform="translate(700)"></use><text x="186" y="15" text-anchor="middle" xml:space="preserve"><tspan>0b1111</tspan></text><text x="426" y="15" text-anchor="middle" xml:space="preserve"><tspan>0b1010</tspan></text><text x="546" y="15" text-anchor="middle" xml:space="preserve"><tspan>0b1111</tspan></text></g></g><g id="wavelane_7_1" transform="translate(0,215)"><text x="-10" y="15" class="info" text-anchor="end" xml:space="preserve"><tspan>mem[128]</tspan></text><g id="wavelane_draw_7_1" transform="translate(0, 0)"><use xlink:href="#vvv-2" transform="translate(0)"></use><use xlink:href="#vvv-2" transform="translate(20)"></use><use xlink:href="#vvv-2" transform="translate(40)"></use><use xlink:href="#vvv-2" transform="translate(60)"></use><use xlink:href="#vvv-2" transform="translate(80)"></use><use xlink:href="#vvv-2" transform="translate(100)"></use><use xlink:href="#vvv-2" transform="translate(120)"></use><use xlink:href="#vvv-2" transform="translate(140)"></use><use xlink:href="#vvv-2" transform="translate(160)"></use><use xlink:href="#vvv-2" transform="translate(180)"></use><use xlink:href="#vvv-2" transform="translate(200)"></use><use xlink:href="#vvv-2" transform="translate(220)"></use><use xlink:href="#vvv-2" transform="translate(240)"></use><use xlink:href="#vvv-2" transform="translate(260)"></use><use xlink:href="#vvv-2" transform="translate(280)"></use><use xlink:href="#vvv-2" transform="translate(300)"></use><use xlink:href="#vvv-2" transform="translate(320)"></use><use xlink:href="#vvv-2" transform="translate(340)"></use><use xlink:href="#vvv-2" transform="translate(360)"></use><use xlink:href="#vvv-2" transform="translate(380)"></use><use xlink:href="#vvv-2" transform="translate(400)"></use><use xlink:href="#vvv-2" transform="translate(420)"></use><use xlink:href="#vvv-2" transform="translate(440)"></use><use xlink:href="#vvv-2" transform="translate(460)"></use><use xlink:href="#vvv-2" transform="translate(480)"></use><use xlink:href="#vvv-2" transform="translate(500)"></use><use xlink:href="#vvv-2" transform="translate(520)"></use><use xlink:href="#vvv-2" transform="translate(540)"></use><use xlink:href="#vvv-2" transform="translate(560)"></use><use xlink:href="#vvv-2" transform="translate(580)"></use><use xlink:href="#vvv-2" transform="translate(600)"></use><use xlink:href="#vvv-2" transform="translate(620)"></use><use xlink:href="#vvv-2" transform="translate(640)"></use><use xlink:href="#vvv-2" transform="translate(660)"></use><use xlink:href="#vvv-2" transform="translate(680)"></use><use xlink:href="#vvv-2" transform="translate(700)"></use><text x="356" y="15" text-anchor="middle" xml:space="preserve"><tspan>0x12345678</tspan></text></g></g><g id="wavelane_8_1" transform="translate(0,245)"><text x="-10" y="15" class="info" text-anchor="end" xml:space="preserve"><tspan>mem[129]</tspan></text><g id="wavelane_draw_8_1" transform="translate(0, 0)"><use xlink:href="#vvv-2" transform="translate(0)"></use><use xlink:href="#vvv-2" transform="translate(20)"></use><use xlink:href="#vvv-2" transform="translate(40)"></use><use xlink:href="#vvv-2" transform="translate(60)"></use><use xlink:href="#vvv-2" transform="translate(80)"></use><use xlink:href="#vvv-2" transform="translate(100)"></use><use xlink:href="#vvv-2" transform="translate(120)"></use><use xlink:href="#vvv-2" transform="translate(140)"></use><use xlink:href="#vvv-2" transform="translate(160)"></use><use xlink:href="#vvv-2" transform="translate(180)"></use><use xlink:href="#vvv-2" transform="translate(200)"></use><use xlink:href="#vvv-2" transform="translate(220)"></use><use xlink:href="#vvv-2" transform="translate(240)"></use><use xlink:href="#vvv-2" transform="translate(260)"></use><use xlink:href="#vvv-2" transform="translate(280)"></use><use xlink:href="#vvv-2" transform="translate(300)"></use><use xlink:href="#vvv-2" transform="translate(320)"></use><use xlink:href="#vvv-2" transform="translate(340)"></use><use xlink:href="#vvv-2" transform="translate(360)"></use><use xlink:href="#vvv-2" transform="translate(380)"></use><use xlink:href="#vvv-2" transform="translate(400)"></use><use xlink:href="#vvv-2" transform="translate(420)"></use><use xlink:href="#vvv-2" transform="translate(440)"></use><use xlink:href="#vvv-2" transform="translate(460)"></use><use xlink:href="#vvv-2" transform="translate(480)"></use><use xlink:href="#vvv-2" transform="translate(500)"></use><use xlink:href="#vvv-2" transform="translate(520)"></use><use xlink:href="#vvv-2" transform="translate(540)"></use><use xlink:href="#vvv-2" transform="translate(560)"></use><use xlink:href="#vvv-2" transform="translate(580)"></use><use xlink:href="#vvv-2" transform="translate(600)"></use><use xlink:href="#vvv-2" transform="translate(620)"></use><use xlink:href="#vvv-2" transform="translate(640)"></use><use xlink:href="#vvv-2" transform="translate(660)"></use><use xlink:href="#vvv-2" transform="translate(680)"></use><use xlink:href="#vvv-2" transform="translate(700)"></use><text x="356" y="15" text-anchor="middle" xml:space="preserve"><tspan>0xaabbccdd</tspan></text></g></g><g id="wavearcs_1"></g><g id="wavegaps_1"><g id="wavegap_0_1" transform="translate(0,5)"></g><g id="wavegap_1_1" transform="translate(0,35)"></g><g id="wavegap_2_1" transform="translate(0,65)"></g><g id="wavegap_3_1" transform="translate(0,95)"></g><g id="wavegap_4_1" transform="translate(0,125)"></g><g id="wavegap_5_1" transform="translate(0,155)"></g><g id="wavegap_6_1" transform="translate(0,185)"></g><g id="wavegap_7_1" transform="translate(0,215)"></g><g id="wavegap_8_1" transform="translate(0,245)"></g></g></g><g id="groups_1"><g></g></g></g></svg>